<?xml version="1.0" encoding="UTF-8"?>
<!DOCTYPE svg PUBLIC "-//W3C//DTD SVG 1.1//EN" "http://www.w3.org/Graphics/SVG/1.1/DTD/svg11.dtd">
<svg xmlns="http://www.w3.org/2000/svg" version="1.1" width="380px" height="388px" style="shape-rendering:geometricPrecision; text-rendering:geometricPrecision; image-rendering:optimizeQuality; fill-rule:evenodd; clip-rule:evenodd" xmlns:xlink="http://www.w3.org/1999/xlink">
<g><path style="opacity:0.961" fill="#fafcfb" d="M 157.5,23.5 C 219.845,15.3335 272.678,33.6668 316,78.5C 362.983,135.069 372.983,197.736 346,266.5C 313.479,332.476 260.312,366.81 186.5,369.5C 116.602,366.986 64.7687,335.319 31,274.5C 2.89101,212.954 6.89101,153.621 43,96.5C 71.5171,57.1512 109.684,32.8179 157.5,23.5 Z"/></g>
<g><path style="opacity:1" fill="#a7e4f8" d="M 198.5,31.5 C 186.815,31.3649 175.148,31.6983 163.5,32.5C 170.27,30.9993 177.27,30.3326 184.5,30.5C 189.346,30.5008 194.012,30.8341 198.5,31.5 Z"/></g>
<g><path style="opacity:1" fill="#63d4f5" d="M 198.5,31.5 C 245.551,35.6896 284.218,55.6896 314.5,91.5C 311.376,96.9451 306.71,99.9451 300.5,100.5C 300.832,111.187 300.499,121.854 299.5,132.5C 284.37,123.866 269.37,115.033 254.5,106C 256.473,105.505 258.473,105.338 260.5,105.5C 260.5,101.167 260.5,96.8333 260.5,92.5C 257.833,92.5 255.167,92.5 252.5,92.5C 252.5,90.1667 252.5,87.8333 252.5,85.5C 248.5,85.5 244.5,85.5 240.5,85.5C 240.5,87.8333 240.5,90.1667 240.5,92.5C 237.5,92.5 234.5,92.5 231.5,92.5C 231.5,96.8333 231.5,101.167 231.5,105.5C 233.857,105.337 236.19,105.503 238.5,106C 218.173,119.832 197.507,133.165 176.5,146C 183.5,146.333 190.5,146.667 197.5,147C 196.421,147.956 195.255,148.789 194,149.5C 193.667,159.167 193.333,168.833 193,178.5C 188.806,181.932 184.139,184.599 179,186.5C 177.245,184.642 175.745,182.642 174.5,180.5C 170.533,171.902 166.033,163.568 161,155.5C 160.107,154.919 159.107,154.585 158,154.5C 151.699,156.981 148.532,161.648 148.5,168.5C 148.667,169.833 148.833,171.167 149,172.5C 151.758,174.751 153.925,177.418 155.5,180.5C 155.44,181.043 155.107,181.376 154.5,181.5C 150.996,179.582 147.663,177.416 144.5,175C 131.703,160.852 116.703,149.852 99.5,142C 75.6845,137.833 52.5179,140.333 30,149.5C 29.5,149.167 29,148.833 28.5,148.5C 44.926,98.5714 77.2593,63.0714 125.5,42C 137.869,37.5744 150.536,34.4077 163.5,32.5C 175.148,31.6983 186.815,31.3649 198.5,31.5 Z"/></g>
<g><path style="opacity:1" fill="#f8d110" d="M 304.5,140.5 C 305.494,131.348 305.827,122.015 305.5,112.5C 313.167,112.5 320.833,112.5 328.5,112.5C 330.892,115.598 333.058,118.931 335,122.5C 337.792,129.041 340.292,135.708 342.5,142.5C 339.5,142.5 336.5,142.5 333.5,142.5C 333.666,136.824 333.499,131.157 333,125.5C 329.95,121.87 326.117,120.703 321.5,122C 319.536,123.451 318.203,125.284 317.5,127.5C 316.513,132.305 316.179,137.305 316.5,142.5C 274.997,142.832 233.663,142.499 192.5,141.5C 209.783,130.724 226.95,119.724 244,108.5C 244.497,106.19 244.663,103.857 244.5,101.5C 241.833,101.5 239.167,101.5 236.5,101.5C 236.5,100.167 236.5,98.8333 236.5,97.5C 239.167,97.5 241.833,97.5 244.5,97.5C 244.5,95.1667 244.5,92.8333 244.5,90.5C 245.833,90.5 247.167,90.5 248.5,90.5C 248.5,92.8333 248.5,95.1667 248.5,97.5C 251.167,97.5 253.833,97.5 256.5,97.5C 256.5,98.8333 256.5,100.167 256.5,101.5C 253.833,101.5 251.167,101.5 248.5,101.5C 248.232,104.119 248.565,106.619 249.5,109C 267.562,120.029 285.896,130.529 304.5,140.5 Z"/></g>
<g><path style="opacity:1" fill="#f8d220" d="M 316.5,96.5 C 318.371,96.8588 319.871,97.8588 321,99.5C 322.709,102.418 324.542,105.252 326.5,108C 319.174,108.5 311.841,108.666 304.5,108.5C 304.015,103.841 305.848,102.508 310,104.5C 312.001,101.669 314.167,99.0026 316.5,96.5 Z"/></g>
<g><path style="opacity:1" fill="#fae274" d="M 328.5,112.5 C 320.833,112.5 313.167,112.5 305.5,112.5C 305.827,122.015 305.494,131.348 304.5,140.5C 304.5,130.833 304.5,121.167 304.5,111.5C 312.684,111.174 320.684,111.508 328.5,112.5 Z"/></g>
<g><path style="opacity:1" fill="#fdf1bf" d="M 317.5,127.5 C 317.5,132.833 317.5,138.167 317.5,143.5C 275.495,143.833 233.495,143.5 191.5,142.5C 191.624,141.893 191.957,141.56 192.5,141.5C 233.663,142.499 274.997,142.832 316.5,142.5C 316.179,137.305 316.513,132.305 317.5,127.5 Z"/></g>
<g><path style="opacity:1" fill="#026931" d="M 73.5,143.5 C 86.0261,142.049 97.6927,144.549 108.5,151C 119.747,158.909 130.413,167.576 140.5,177C 147.394,182.225 154.56,187.058 162,191.5C 163.827,193.586 163.827,195.586 162,197.5C 161.333,200.167 161.333,202.833 162,205.5C 163.972,210.791 167.305,214.791 172,217.5C 174.271,216.399 176.104,214.733 177.5,212.5C 182.833,216.5 188.167,220.5 193.5,224.5C 194.499,238.15 194.833,251.817 194.5,265.5C 191.192,264.974 189.026,266.307 188,269.5C 187.333,272.5 187.333,275.5 188,278.5C 189.565,281.638 191.399,284.471 193.5,287C 191.289,289.553 189.456,292.386 188,295.5C 167.361,276.261 144.528,260.095 119.5,247C 88.1975,230.598 55.6975,217.098 22,206.5C 20.2302,188.735 22.0635,171.401 27.5,154.5C 42.6571,149.547 57.9904,145.88 73.5,143.5 Z"/></g>
<g><path style="opacity:1" fill="#f8d008" d="M 198.5,152.5 C 230.833,152.5 263.167,152.5 295.5,152.5C 295.832,191.67 295.499,230.67 294.5,269.5C 284.574,266.711 274.907,263.045 265.5,258.5C 264.5,234.843 264.167,211.176 264.5,187.5C 254.013,186.506 243.346,186.172 232.5,186.5C 232.5,208.5 232.5,230.5 232.5,252.5C 232.167,252.5 231.833,252.5 231.5,252.5C 226.607,253.796 221.94,255.462 217.5,257.5C 211.426,259.302 205.426,261.302 199.5,263.5C 198.167,252.167 198.167,240.833 199.5,229.5C 202.145,234.256 206.312,236.923 212,237.5C 214.248,236.045 216.748,235.212 219.5,235C 220.826,232.354 222.492,230.021 224.5,228C 223.899,226.395 222.899,225.062 221.5,224C 213.565,219.45 206.065,214.284 199,208.5C 198.5,189.836 198.333,171.17 198.5,152.5 Z"/></g>
<g><path style="opacity:1" fill="#f9e066" d="M 344.5,241.5 C 344.5,211.833 344.5,182.167 344.5,152.5C 331.5,152.5 318.5,152.5 305.5,152.5C 305.5,193.167 305.5,233.833 305.5,274.5C 304.501,233.67 304.168,192.67 304.5,151.5C 318.167,151.5 331.833,151.5 345.5,151.5C 345.831,181.671 345.498,211.671 344.5,241.5 Z"/></g>
<g><path style="opacity:1" fill="#f8d006" d="M 344.5,241.5 C 337.28,267.344 324.613,290.01 306.5,309.5C 305.515,305.366 305.182,301.032 305.5,296.5C 305.128,293.978 305.961,291.978 308,290.5C 308.667,285.833 308.667,281.167 308,276.5C 307.292,275.619 306.458,274.953 305.5,274.5C 305.5,233.833 305.5,193.167 305.5,152.5C 318.5,152.5 331.5,152.5 344.5,152.5C 344.5,182.167 344.5,211.833 344.5,241.5 Z"/></g>
<g><path style="opacity:1" fill="#e6ebed" d="M 174.5,180.5 C 173.904,181.935 173.904,183.602 174.5,185.5C 171.115,179.071 167.448,172.737 163.5,166.5C 162.265,163.699 160.765,161.032 159,158.5C 159.618,165.515 157.618,166.181 153,160.5C 152.837,162.387 153.671,163.887 155.5,165C 154.167,165.667 152.833,166.333 151.5,167C 152.458,168.147 152.125,169.147 150.5,170C 152.785,171.115 154.118,172.615 154.5,174.5C 156.588,176.336 157.921,178.669 158.5,181.5C 157.609,180.89 156.609,180.557 155.5,180.5C 153.925,177.418 151.758,174.751 149,172.5C 148.833,171.167 148.667,169.833 148.5,168.5C 148.532,161.648 151.699,156.981 158,154.5C 159.107,154.585 160.107,154.919 161,155.5C 166.033,163.568 170.533,171.902 174.5,180.5 Z"/></g>
<g><path style="opacity:1" fill="#fffdf7" d="M 244.5,156.5 C 255.18,156.015 260.347,161.015 260,171.5C 255.425,180.799 248.759,182.799 240,177.5C 234.279,168.917 235.779,161.917 244.5,156.5 Z"/></g>
<g><path style="opacity:1" fill="#fefdfa" d="M 321.5,157.5 C 325.516,156.9 329.016,157.9 332,160.5C 333.42,167.05 333.92,173.716 333.5,180.5C 328.167,180.5 322.833,180.5 317.5,180.5C 317.334,174.158 317.5,167.825 318,161.5C 319.376,160.295 320.542,158.962 321.5,157.5 Z"/></g>
<g><path style="opacity:1" fill="#8c8c8d" d="M 163.5,166.5 C 162.596,167.209 162.263,168.209 162.5,169.5C 157.397,168.363 154.73,170.03 154.5,174.5C 154.118,172.615 152.785,171.115 150.5,170C 152.125,169.147 152.458,168.147 151.5,167C 152.833,166.333 154.167,165.667 155.5,165C 153.671,163.887 152.837,162.387 153,160.5C 157.618,166.181 159.618,165.515 159,158.5C 160.765,161.032 162.265,163.699 163.5,166.5 Z"/></g>
<g><path style="opacity:1" fill="#363637" d="M 163.5,166.5 C 167.448,172.737 171.115,179.071 174.5,185.5C 176.44,189.28 178.607,192.946 181,196.5C 182.734,198.451 184.901,199.451 187.5,199.5C 188.167,200.833 188.833,202.167 189.5,203.5C 190.96,205.463 192.627,207.296 194.5,209C 202.069,214.751 209.736,220.251 217.5,225.5C 216.833,225.5 216.167,225.5 215.5,225.5C 214.811,224.226 213.977,224.226 213,225.5C 212.333,224.833 211.667,224.167 211,223.5C 209.414,225.67 208.08,228.004 207,230.5C 206.329,229.748 205.496,229.414 204.5,229.5C 203.883,229.611 203.383,229.944 203,230.5C 202.484,227.966 201.317,225.8 199.5,224C 191.249,220.049 183.916,214.883 177.5,208.5C 175.493,210.008 173.826,211.842 172.5,214C 171.833,214.667 171.167,214.667 170.5,214C 165.847,209.863 163.514,204.696 163.5,198.5C 165.819,199.167 168.153,199.334 170.5,199C 165.86,193.535 161.86,187.701 158.5,181.5C 157.921,178.669 156.588,176.336 154.5,174.5C 154.73,170.03 157.397,168.363 162.5,169.5C 162.263,168.209 162.596,167.209 163.5,166.5 Z"/></g>
<g><path style="opacity:1" fill="#fae272" d="M 198.5,152.5 C 230.996,151.502 263.662,151.168 296.5,151.5C 296.833,191.172 296.5,230.839 295.5,270.5C 294.893,270.376 294.56,270.043 294.5,269.5C 295.499,230.67 295.832,191.67 295.5,152.5C 263.167,152.5 230.833,152.5 198.5,152.5 Z"/></g>
<g><path style="opacity:1" fill="#71b69c" d="M 192.5,184.5 C 192.56,183.957 192.893,183.624 193.5,183.5C 194.833,188.167 194.833,192.833 193.5,197.5C 192.893,197.376 192.56,197.043 192.5,196.5C 193.833,192.5 193.833,188.5 192.5,184.5 Z"/></g>
<g><path style="opacity:1" fill="#066e38" d="M 192.5,184.5 C 193.833,188.5 193.833,192.5 192.5,196.5C 189.544,195.863 186.544,195.363 183.5,195C 182.139,193.416 181.472,191.582 181.5,189.5C 185.548,188.642 189.215,186.975 192.5,184.5 Z"/></g>
<g><path style="opacity:1" fill="#fcf2c7" d="M 264.5,187.5 C 254.167,187.5 243.833,187.5 233.5,187.5C 233.831,209.34 233.497,231.006 232.5,252.5C 232.5,230.5 232.5,208.5 232.5,186.5C 243.346,186.172 254.013,186.506 264.5,187.5 Z"/></g>
<g><path style="opacity:1" fill="#fffbef" d="M 322.5,214.5 C 319.375,213.521 316.042,213.187 312.5,213.5C 312.5,211.833 312.5,210.167 312.5,208.5C 315.833,208.5 319.167,208.5 322.5,208.5C 322.5,205.167 322.5,201.833 322.5,198.5C 324.5,198.5 326.5,198.5 328.5,198.5C 328.5,201.833 328.5,205.167 328.5,208.5C 332.167,208.5 335.833,208.5 339.5,208.5C 339.5,210.5 339.5,212.5 339.5,214.5C 335.833,214.5 332.167,214.5 328.5,214.5C 328.5,234.5 328.5,254.5 328.5,274.5C 326.5,274.5 324.5,274.5 322.5,274.5C 322.5,254.5 322.5,234.5 322.5,214.5 Z"/></g>
<g><path style="opacity:1" fill="#6a6a6b" d="M 187.5,199.5 C 189.503,198.468 191.503,198.802 193.5,200.5C 191.816,201.15 190.483,202.15 189.5,203.5C 188.833,202.167 188.167,200.833 187.5,199.5 Z"/></g>
<g><path style="opacity:1" fill="#0aade4" d="M 22.5,212.5 C 74.093,227.298 121.76,250.131 165.5,281C 173.265,286.761 180.431,293.261 187,300.5C 187.755,303.688 188.589,306.855 189.5,310C 188.349,311.823 187.182,313.656 186,315.5C 185.333,321.833 185.333,328.167 186,334.5C 188.306,339.306 191.806,342.973 196.5,345.5C 197.583,346.365 197.749,347.365 197,348.5C 185.119,361.63 170.952,364.463 154.5,357C 161.757,354.128 167.257,349.295 171,342.5C 172.972,335.733 171.972,329.4 168,323.5C 152.332,307.739 134.166,295.572 113.5,287C 88.8404,276.115 63.1738,268.448 36.5,264C 29.4946,247.482 24.828,230.315 22.5,212.5 Z"/></g>
<g><path style="opacity:1" fill="#fdf0ba" d="M 312.5,208.5 C 312.5,210.167 312.5,211.833 312.5,213.5C 316.042,213.187 319.375,213.521 322.5,214.5C 318.833,214.5 315.167,214.5 311.5,214.5C 311.205,212.265 311.539,210.265 312.5,208.5 Z"/></g>
<g><path style="opacity:1" fill="#a3a3a3" d="M 215.5,225.5 C 216.167,225.5 216.833,225.5 217.5,225.5C 219.423,225.795 221.09,226.628 222.5,228C 220.793,228.195 219.126,228.195 217.5,228C 217.833,228.333 218.167,228.667 218.5,229C 216.043,230.154 216.043,231.488 218.5,233C 217.004,233.507 215.837,233.007 215,231.5C 214.683,233.301 214.016,233.634 213,232.5C 212.667,233.167 212.333,233.833 212,234.5C 211.15,233.576 210.15,233.576 209,234.5C 207.97,234.164 207.47,233.497 207.5,232.5C 209.844,231.653 211.344,229.986 212,227.5C 213,227.5 214,227.5 215,227.5C 215.464,226.906 215.631,226.239 215.5,225.5 Z"/></g>
<g><path style="opacity:1" fill="#fdf1bf" d="M 199.5,229.5 C 198.167,240.833 198.167,252.167 199.5,263.5C 199.44,264.043 199.107,264.376 198.5,264.5C 197.167,252.5 197.167,240.5 198.5,228.5C 199.107,228.624 199.44,228.957 199.5,229.5 Z"/></g>
<g><path style="opacity:1" fill="#7c7c7c" d="M 215.5,225.5 C 215.631,226.239 215.464,226.906 215,227.5C 214,227.5 213,227.5 212,227.5C 211.344,229.986 209.844,231.653 207.5,232.5C 205.5,232.5 204.5,231.5 204.5,229.5C 205.496,229.414 206.329,229.748 207,230.5C 208.08,228.004 209.414,225.67 211,223.5C 211.667,224.167 212.333,224.833 213,225.5C 213.977,224.226 214.811,224.226 215.5,225.5 Z"/></g>
<g><path style="opacity:1" fill="#8a8a89" d="M 240.5,253.5 C 261.478,261.987 282.478,270.487 303.5,279C 288.649,286.311 273.649,293.478 258.5,300.5C 257.52,303.086 257.187,305.753 257.5,308.5C 272.949,302.193 288.116,295.193 303,287.5C 303.617,288.449 303.451,289.282 302.5,290C 300.579,290.36 298.912,291.194 297.5,292.5C 298.325,293.386 299.325,293.719 300.5,293.5C 300.607,295.903 299.607,297.736 297.5,299C 289.037,305.794 280.87,312.961 273,320.5C 272.172,325.202 272.338,329.869 273.5,334.5C 280.152,328.348 286.652,322.015 293,315.5C 293.465,316.931 294.299,318.097 295.5,319C 291.958,323.261 287.624,326.261 282.5,328C 279.521,331.823 275.854,334.656 271.5,336.5C 266.314,335.16 261.314,333.327 256.5,331C 245.386,329.461 241.219,334.294 244,345.5C 244.402,346.872 244.902,348.205 245.5,349.5C 240.995,351.447 236.328,352.78 231.5,353.5C 231.844,349.947 232.511,346.447 233.5,343C 233.237,341.054 232.237,340.388 230.5,341C 228.544,345.61 227.544,350.444 227.5,355.5C 223.837,356.112 220.17,356.279 216.5,356C 213.667,353.833 210.833,351.667 208,349.5C 205.907,341.25 206.074,333.083 208.5,325C 207.135,323.318 205.635,323.151 204,324.5C 201.9,331.454 202.067,338.288 204.5,345C 202.613,345.163 201.113,344.329 200,342.5C 198.437,337.282 198.104,331.949 199,326.5C 199.233,324.22 200.066,322.22 201.5,320.5C 199.674,317.919 197.841,317.919 196,320.5C 195.667,326.5 195.333,332.5 195,338.5C 193.488,337.743 192.154,336.743 191,335.5C 189.107,328.81 189.107,322.143 191,315.5C 193.896,313.391 197.062,311.891 200.5,311C 197.898,310.023 195.398,308.856 193,307.5C 192.333,303.167 192.333,298.833 193,294.5C 197.288,291.944 201.455,289.278 205.5,286.5C 201.741,283.535 197.574,281.201 193,279.5C 192.502,276.183 192.335,272.85 192.5,269.5C 208.91,265.141 224.91,259.808 240.5,253.5 Z"/></g>
<g><path style="opacity:1" fill="#fef2c7" d="M 231.5,252.5 C 227.37,255.324 222.703,256.991 217.5,257.5C 221.94,255.462 226.607,253.796 231.5,252.5 Z"/></g>
<g><path style="opacity:1" fill="#05af43" d="M 66.5,274.5 C 72.4993,277.276 78.8327,279.276 85.5,280.5C 105.614,287.826 124.947,296.993 143.5,308C 153.333,313.833 161.167,321.667 167,331.5C 168.261,339.811 165.094,345.977 157.5,350C 152.652,352.505 147.652,354.172 142.5,355C 95.9453,341.078 61.6119,312.578 39.5,269.5C 39.8333,269.167 40.1667,268.833 40.5,268.5C 49.1766,270.503 57.8433,272.503 66.5,274.5 Z"/></g>
<g><path style="opacity:1" fill="#bce8cb" d="M 66.5,274.5 C 73.1673,275.724 79.5007,277.724 85.5,280.5C 78.8327,279.276 72.4993,277.276 66.5,274.5 Z"/></g>
<g><path style="opacity:1" fill="#fcf1c2" d="M 305.5,296.5 C 305.182,301.032 305.515,305.366 306.5,309.5C 306.44,310.043 306.107,310.376 305.5,310.5C 304.188,305.682 304.188,301.015 305.5,296.5 Z"/></g>
<g><path style="opacity:1" fill="#cccccb" d="M 243.5,322.5 C 249.914,324.205 256.247,326.205 262.5,328.5C 263.769,326.305 263.769,324.139 262.5,322C 240.459,314.931 218.459,307.764 196.5,300.5C 196.833,300.167 197.167,299.833 197.5,299.5C 219.859,306.564 242.192,313.731 264.5,321C 265.451,324.057 265.784,327.223 265.5,330.5C 257.738,328.804 250.405,326.137 243.5,322.5 Z"/></g>
<g><path style="opacity:1" fill="#b8b8b7" d="M 243.5,322.5 C 232.549,319.905 221.883,316.405 211.5,312C 222.682,314.005 233.348,317.505 243.5,322.5 Z"/></g>
<g><path style="opacity:1" fill="#f0f0f0" d="M 233.5,323.5 C 235.484,323.383 237.15,324.05 238.5,325.5C 235.259,329.525 233.592,334.191 233.5,339.5C 231.127,338.45 230.127,336.617 230.5,334C 230.814,330.233 231.814,326.733 233.5,323.5 Z"/></g>
</svg>
